Patient4_TMGait_0pt3_03_left_18_EMG.mot
version=1
nRows=36
nColumns=33
inDegrees=no
endheader
time	1LAddLong	2LGlutMax	3LGlutMed	4LIliopsoas	5LSemiMemb	6LBicFemLong	7LRecFem	8LVastMed	9LVastLat	10LGasMed	11LTibAnt	12lTibPost	13LPeroneusLong	14LSol	15LExtDigLong	16LFlexDigLong	17RAddLong	18RGlutMax	19RGlutMed	20RIliopsoas	21RSemiMemb	22RBicFemLong	23RRecFem	24RVastMed	25RVastLat	26RGasMed	27RTibAnt	28RTibPost	29RPeroneusLong	30RSol	31RExtDigLong	32RFlexDigLong
31.08	0.006256	0.12161	0.023956	-0.018158	0.039825	0.065002	0.10696	0.003815	-0.034637	-0.026093	0.11459	-0.000458	-0.008392	-0.006561	0.26657	-0.022125	-0.034027	0.64392	-0.13382	0.006714	0.034027	0.19073	-0.037537	0.048218	0.14328	-0.17975	0.026093	0.14908	0.059509	0.61417	-0.001068	-0.011749
31.081	0.005493	0.1088	0.033112	-0.033417	0.019989	0.068359	0.11414	-0.002441	-0.031128	-0.012665	-0.14664	-0.000763	-0.018921	0.030212	-0.028534	-0.017853	-0.011597	0.57861	-0.086517	-0.019836	0.025024	0.17197	0.016479	0.015106	0.1326	-0.1532	0.02121	0.14786	0.1088	-0.3302	-0.003815	-0.010986
31.082	0.010986	0.088348	0.020294	-0.010834	0.005798	0.019836	0.11047	0.00351	-0.033875	-0.021973	0.023041	0.005188	-0.029602	-0.002899	-0.28809	-0.006866	-0.027618	0.50964	-0.0177	0.011292	0.053864	0.087738	0.088043	-0.009766	0.050507	-0.11673	0.048523	0.1799	0.060425	-0.41596	-0.002136	-0.020599
31.083	0.00946	0.10773	0.00473	0.005951	0.010071	0.001526	0.099335	0.002441	-0.032196	-0.046997	-0.049286	0.009003	0.043945	0.016174	0.020294	-0.014954	-0.010986	0.41245	-0.12253	0.037842	0.000763	0.035553	0.10162	-0.026398	-0.032349	-0.007324	0.043793	0.027008	0.031128	-0.53177	-0.003357	-0.023193
31.084	0.009918	0.12161	-0.019989	0.011749	-0.002441	-0.001678	0.097198	0.004272	-0.042877	-0.057068	-0.12634	0.004272	0.08728	0.029602	-0.024567	0.007324	-0.005951	0.38116	-0.71121	0.098267	-0.027466	-0.003967	0.14069	-0.033417	-0.081482	0.13428	0.095062	-0.034332	0.005646	-0.51544	-0.001526	-0.009766
31.085	0.012512	0.12009	-0.013733	0.014648	-0.005798	0.008545	0.091553	0.005951	-0.039673	-0.031433	-0.16434	0.001526	-0.043335	0.045929	0.47974	-0.007782	0.000458	0.3183	-0.90927	0.076294	-0.014038	0.006866	0.10574	-0.075684	-0.11353	0.24399	0.11551	-0.052338	0.078125	-0.048065	-0.000916	0.002136
31.086	0.032806	0.10757	-0.001221	0.016479	-0.007019	-0.002899	0.084381	0.001526	-0.042267	-0.039063	-0.21973	0.004578	-0.014496	0.047455	0.14557	0.006409	-0.011444	0.30548	-0.616	0.01236	-0.024261	0.029144	0.10208	-0.04837	-0.11108	0.12283	0.14038	-0.045013	-0.006409	0.82718	-0.002594	-0.005035
31.087	0.006714	0.099792	0.030518	0.00412	-0.009613	-0.016785	0.074463	0.00885	-0.04303	-0.015106	-0.033112	0.002899	0.003357	0.016174	0.49347	-0.000763	0.004883	0.31006	0.68131	-0.050964	-0.066376	0.016937	0.063171	-0.055237	-0.065613	0.024719	0.052643	-0.057068	-0.041199	0.24078	0.001831	-0.00885
31.088	0.013733	0.11398	0.032654	-0.002594	0.002441	-0.025177	0.09552	0.00412	-0.048828	-0.03006	0.25711	0.001831	0.010529	0.070038	0.54886	-0.001984	0.02655	0.35675	0.5249	-0.043945	-0.055695	-0.006714	0.12116	-0.043488	-0.019836	-0.014343	-0.007324	-0.042267	-0.083771	-0.35461	0.001678	-0.010529
31.089	0.010834	0.11063	-0.00473	-0.014343	0.028381	-0.044861	0.089417	0.004425	-0.046692	-0.014343	0.35904	0.007782	-0.033112	0.082397	-0.12131	-0.005798	0.03067	0.36468	0.10696	-0.003967	0.021057	-0.033722	0.19898	0.020447	0.13687	-0.036926	-0.20462	-0.033264	-0.030365	-0.50751	-0.001831	-0.013885
31.09	0.02243	0.093689	-0.018158	-0.006866	0.006409	-0.027008	0.068817	0.011292	-0.053558	-0.048676	0.058136	0.007324	0.018158	0.13641	-1.0695	-0.014648	0.024872	0.38849	0.23239	0.040283	0.15167	-0.068359	0.23148	-0.076904	0.14297	0.032349	-0.15335	-0.028839	-0.000916	-0.48431	-0.001831	-0.003204
31.091	0.014648	0.094147	-0.027466	0.003052	0.007019	-0.02533	0.059814	0.004425	-0.059662	-0.031433	0.10269	0.004272	-0.043182	0.038147	-0.75363	-0.018616	-0.00351	0.43274	0.006561	0.046539	0.042877	-0.046997	0.034637	-0.033417	0.11108	0.022888	-0.020752	-0.01709	0.02243	-0.030823	0.003052	-0.004578
31.092	0.016327	0.084839	-0.016022	0.006104	-0.019684	-0.026398	0.071259	0.007477	-0.048218	0.002899	-0.078278	0.001221	-0.027008	-0.11139	-0.65323	-0.020752	-0.005798	0.4689	0.26489	-0.042114	0.026855	-0.013733	-0.15472	0.02121	0.098419	0.054016	-0.08606	-0.019836	0.006714	0.22751	0.000763	0.005646
31.093	0.004272	0.06546	0.009766	0.034637	-0.002747	-0.049133	0.073395	0.012054	-0.059814	-0.021057	-0.20081	-0.000458	0.044098	-0.17487	-0.2742	-0.015106	0.001678	0.42664	0.51392	-0.07782	-0.065918	-0.003052	-0.19226	0.06546	0.14969	0.063629	0.005798	-0.016174	-0.075531	-0.016327	0.001526	0.002289
31.094	-0.007629	0.062714	0.016785	0.033722	0.009308	-0.033264	0.074921	0.005493	-0.050201	-0.028381	-0.13336	0.005341	0.048065	-0.15549	0.079193	-0.017853	0.018005	0.4599	0.45959	-0.023193	-0.083008	-0.05722	-0.10284	0.037842	0.11917	0.054321	0.1033	-0.017242	-0.20035	-0.28564	0.006256	-0.00824
31.095	0.003204	0.061951	-0.018005	0.04837	0.016479	-0.002289	0.055084	0.007019	-0.053406	-0.007629	0.003357	0.000763	0.013733	-0.078888	0.13184	-0.019226	0.016174	0.47012	-0.080261	0.027466	-0.10101	0.00351	-0.17853	0.18097	0.058594	0.040894	0.16449	-0.013428	-0.15549	-0.65277	0.002747	-0.002747
31.096	-0.001678	0.073853	-0.030823	0.029755	0.012512	0.004578	0.071564	0.007782	-0.056915	-0.008545	-0.036011	-0.001068	-0.005188	-0.043793	0.24445	-0.010681	0.02243	0.4866	-0.17685	0.037689	-0.076599	-0.017395	-0.13748	0.19028	-0.18539	0.019684	-0.22888	-0.013885	-0.10193	-0.74204	-0.001373	-0.011292
31.097	-0.009308	0.075836	-0.008087	-0.00824	-0.000916	0.009766	0.072937	0.005188	-0.059814	-0.018005	-0.12955	0.00412	0.034332	-0.12619	-0.13351	0.002289	0.045471	0.52322	0.2681	-0.028839	0.077209	-0.086365	-0.14114	0.026398	-0.18082	0.000763	-0.10071	-0.016174	-0.093079	-0.72433	-0.00061	-0.016022
31.098	0.012817	0.080719	0.028839	-0.027618	0.007324	0.009613	0.069427	0.005798	-0.064087	0.01709	-0.13626	-0.002136	0.005646	-0.16312	-0.17853	0.000305	0.04425	0.48645	0.52719	-0.046387	0.14053	-0.1619	-0.10269	-0.0177	-0.013733	-0.001678	0.28229	-0.014343	-0.072632	-0.33524	-0.00351	-0.015869
31.099	0.009308	0.075073	0.015869	-0.006866	-0.00824	0.008087	0.073242	0.00061	-0.057678	0.029297	-0.10162	0.004883	-0.025482	-0.08606	-0.093384	0.002289	0.046387	0.49088	0.13016	-0.007782	0.078278	-0.16403	-0.054016	-0.063477	0.03891	-0.000153	0.1207	-0.01297	0.084839	0.26199	-0.001068	-0.005188
31.1	0.001831	0.051575	-0.002594	-0.010376	-0.004578	0.007629	0.065765	0.005341	-0.057526	0.023956	-0.031128	0.002136	-0.010681	-0.011902	0.3804	-0.007019	0.036011	0.42923	-0.034332	0.033264	-0.12482	-0.055389	-0.036774	-0.022736	0.048981	-0.002747	-0.49637	-0.000763	0.15305	0.59219	-0.000916	-0.008545
31.101	0.009766	0.051575	0.023956	-0.00824	-0.005188	0.00824	0.065765	0.004425	-0.062103	0.018158	0.042114	0.004425	0.005035	0.009766	0.29694	0.00351	0.0354	0.46173	-0.11307	0.041046	-0.18173	0.060577	0.061646	-0.034332	0.045166	-0.004272	-0.49744	-0.008698	0.13123	0.76553	-0.001831	0.001221
31.102	-0.000305	0.060425	0.004272	0.000305	-0.006409	0.00061	0.066681	0.007172	-0.051422	0.029602	0.076752	0.005188	-0.022125	-0.034027	0.24811	0.004578	0.040741	0.41245	-0.031433	0.029449	-0.15961	0.078583	0.052795	-0.004578	0.048065	-0.005035	-0.19394	-0.002899	0.055542	0.68436	-0.002594	-0.001526
31.103	0.014038	0.036011	-0.056763	-0.002441	-0.006104	-0.017548	0.074921	0.007782	-0.066681	0.012665	0.045929	0.000916	0.00061	0.00473	0.092773	-0.002136	0.057831	0.38467	-0.066681	0.061188	0.0914	0.0177	0.081329	-0.021515	0.015564	-0.00061	-0.084229	0.000916	-0.061493	0.32013	-0.006104	-0.001831
31.104	0.0177	0.030518	-0.036621	-0.023651	-0.012207	-0.008545	0.074768	0.006866	-0.059662	-0.007477	0.13687	0.00412	-0.003204	0.055542	0.023193	-0.019836	0.06134	0.34714	-0.036163	0.1239	0.097046	0.024414	0.04364	-0.064545	-0.06958	0.007172	-0.3122	-0.002747	-0.003662	0.06073	-0.009918	-0.012665
31.105	0.001373	0.039825	-0.005341	-0.025024	-0.01236	-0.022278	0.061798	0.008545	-0.047455	-0.016174	0.096741	0.002136	-0.005341	0.065613	0.069733	-0.006409	0.074921	0.3096	0.1973	0.084381	0.13397	0.015717	0.02655	-0.086975	-0.073395	0.000153	-0.41672	0.000458	0.11871	0.066376	-0.001984	-0.002136
31.106	0.017853	0.021057	-0.005646	0.006409	0.000458	-0.037079	0.066376	0.006561	-0.042725	0.002899	0.000305	0.007629	0.023651	-0.0177	0.034332	0.002594	0.053406	0.21149	-0.12039	0.014496	0.067139	-0.015869	-0.015564	-0.11261	-0.037537	0.001068	-0.17212	-0.002747	0.077057	0.13825	-0.002899	-0.004883
31.107	0.010834	-0.011139	-0.066986	0.018311	-0.000763	-0.038605	0.058746	0.006866	-0.037689	0.022888	-0.000916	-0.029449	0.022888	-0.07782	-0.020294	-0.007629	0.00946	0.16953	-0.025024	-0.062256	-0.031891	-0.049438	-0.018005	0.04425	0.031891	0.00412	-0.16449	0.000153	0.082245	0.12451	0.005341	-0.011292
31.108	0.006409	-0.005493	-0.031128	-0.00412	-0.002289	-0.007172	0.055847	0.007935	-0.047607	-0.005188	-0.038452	-0.005035	0.029755	-0.062256	0.016022	0.005188	0.007477	0.21561	0.049286	-0.13367	0.097809	-0.085449	-0.010834	0.13702	0.041046	-0.00061	-0.10101	-0.001678	0.042572	0.020752	0.000305	-0.011902
31.109	0.005035	0.011597	0.001221	-0.011139	0.000763	-0.007629	0.073853	0.002136	-0.050049	-0.016479	-0.056305	0.007477	0.016174	-0.03479	0.033112	0.002899	-0.016479	0.17944	0.22644	-0.15121	-0.090179	-0.005493	-0.012665	0.17075	0.036926	-0.000763	-0.088043	0.001831	0.029297	-0.037079	0.00061	-0.011292
31.11	0.004578	0.003662	0.030518	-0.005341	-0.003204	-0.03006	0.048676	0.003967	-0.039063	0.027313	0.032806	-0.003357	-0.047607	0.029449	0.02655	-0.010071	0.005646	0.22034	-0.14832	-0.039368	-0.079803	0.046387	0.046844	0.082092	0.017242	-0.006104	0.042725	-0.003052	-0.069733	-0.16968	-0.002136	-0.018768
31.111	0.013275	0.006104	0.042877	-0.006714	0.006104	-0.027313	0.05249	-0.002747	-0.034485	0.022888	0.098724	0.001068	-0.075989	0.053253	0.087433	0.009918	0.003967	0.15442	-0.3447	0.10346	-0.071564	-0.008545	0.063324	0.056458	0.006256	-0.015564	0.15305	-0.000458	-0.17242	-0.17578	-0.000916	-0.017548
31.112	0.033112	0.033722	0.021973	0.024719	0.000763	-0.032043	0.037842	-0.006409	-0.039825	0.00412	0.088501	0.005646	-0.039978	0.055084	0.027466	0.000153	-0.010071	0.11734	-0.31342	0.15045	-0.24674	0.013733	0.044708	0.001373	0.015106	-0.00946	0.21942	0.000305	-0.16327	-0.092163	-0.000916	-0.015717
31.113	0.00885	0.044403	0.014496	0.028687	-0.000153	-0.029755	0.034943	-0.000153	-0.040283	0.008698	0.016022	0.001373	0.006256	0.011597	-0.14008	-0.012817	-0.030823	0.095215	0.093842	0.11734	-0.32089	0.028381	0.059052	0.018311	0.019836	0.001373	0.11566	-0.002747	-0.094604	-0.12924	-0.002289	-0.011292
31.114	0.020447	0.059052	0.010529	0.017548	0.007629	-0.029755	0.054474	-0.003662	-0.0354	-0.010376	-0.016785	0.003204	0.02533	-0.001678	-0.11078	-0.000305	-0.065155	0.007782	0.079041	-0.051422	0.10025	0.045166	0.020447	-0.038605	0.035553	0.002289	0.007629	-0.006104	-0.037689	0.020294	-0.002289	-0.011597
31.115	0.021057	0.097046	0.018311	0.002594	-0.001526	-0.022888	0.048523	-0.002136	-0.037079	0.014648	-0.028992	0.001526	-0.002441	-0.018311	-0.11169	-0.001678	-0.04303	-0.052032	0.46173	-0.12451	0.37308	-0.007782	0.001068	-0.1062	0.03067	-0.00061	-0.14374	-0.005341	0.015259	-0.060425	0.000458	-0.013123
